<svg xmlns="http://www.w3.org/2000/svg" width="520" height="180" viewBox="0 0 520 180" fill="none">
  <rect width="520" height="180" rx="24" fill="#ffffff" fill-opacity="0.08"/>
  <g transform="translate(24 28)">
    <circle cx="52" cy="52" r="48" fill="#0B4EA2"/>
    <circle cx="52" cy="52" r="36" fill="#ffffff" fill-opacity="0.14"/>
    <path d="M52 18L77 34V70C77 84 66 95 52 99C38 95 27 84 27 70V34L52 18Z" fill="#ffffff"/>
    <path d="M52 34L65 42V64C65 71 59 77 52 80C45 77 39 71 39 64V42L52 34Z" fill="#0B4EA2"/>
    <path d="M46 45H58V67H46V45Z" fill="#ffffff"/>
    <path d="M40 52H64V60H40V52Z" fill="#ffffff"/>
  </g>
  <g transform="translate(130 42)">
    <text x="0" y="34" font-family="Arial, Helvetica, sans-serif" font-size="42" font-weight="700" fill="#FFFFFF">TRƯỜNG ĐẠI HỌC GIAO THÔNG</text>
    <text x="0" y="78" font-family="Arial, Helvetica, sans-serif" font-size="42" font-weight="700" fill="#FFFFFF">VẬN TẢI TP. HỒ CHÍ MINH</text>
    <text x="2" y="114" font-family="Arial, Helvetica, sans-serif" font-size="20" font-weight="600" fill="#9CC7FF">UNIVERSITY OF TRANSPORT HO CHI MINH CITY</text>
  </g>
</svg>